<svg height="200px" width="200px" version="1.1" id="Capa_1" xmlns="http://www.w3.org/2000/svg" xmlns:xlink="http://www.w3.org/1999/xlink" viewBox="0 0 60 60" xml:space="preserve">
  <defs>
    <linearGradient id="grad3" x1="0%" y1="0%" x2="100%" y2="0%">
      <stop offset="0%" style="stop-color:#00C853;stop-opacity:1" />
      <stop offset="100%" style="stop-color:#03A9F4;stop-opacity:1" />
    </linearGradient>
  </defs>
  <g id="SVGRepo_bgCarrier" stroke-width="0"></g>
  <g id="SVGRepo_tracerCarrier" stroke-linecap="round" stroke-linejoin="round"></g>
  <g id="SVGRepo_iconCarrier">
    <g>
      <path d="M54,10H6c-3.252,0-6,2.748-6,6v28c0,3.252,2.748,6,6,6h14.555l8.702,9.669C29.446,59.88,29.716,60,30,60 s0.554-0.12,0.743-0.331L39.445,50H54c3.252,0,6-2.748,6-6V16C60,12.748,57.252,10,54,10z" fill="url(#grad3)"></path>
      <path d="M8,9h44c0.552,0,1-0.448,1-1V4.793C53,2.195,50.805,0,48.207,0H11.793C9.195,0,7,2.195,7,4.793V8C7,8.552,7.448,9,8,9z" fill="url(#grad3)"></path>
    </g>
  </g>
</svg>

